<?xml version="1.0" encoding="UTF-8"?>
<svg id="Layer_1" data-name="Layer 1" xmlns="http://www.w3.org/2000/svg" viewBox="0 0 43.96 40.98">
  <defs>
    <style>
      .cls-1 {
        fill: #404041;
        stroke-width: 0px;
      }
    </style>
  </defs>
  <polygon class="cls-1" points="21.8 10.08 4.93 21.12 4.93 40.98 17.54 40.98 17.54 28.98 21.86 28.98 26.19 28.98 26.19 40.98 38.8 40.98 38.8 21.12 21.92 10.08 21.8 10.08"/>
  <path class="cls-1" d="M43.96,14.88L22.71.26c-.52-.35-1.19-.35-1.7,0l-7.36,5.12v-1.48c0-1.13-.91-2.04-2.04-2.04h-6.31c-1.13,0-2.04.92-2.04,2.04v8.71l-3.25,2.26v5.23L21.86,5.9l22.04,14.22.06-5.24Z"/>
</svg>