<?xml version="1.0" encoding="UTF-8"?>
<svg id="Layer_1" data-name="Layer 1" xmlns="http://www.w3.org/2000/svg" xmlns:xlink="http://www.w3.org/1999/xlink" viewBox="0 0 82.91 54">
  <defs>
    <style>
      .cls-1 {
        fill: none;
      }

      .cls-1, .cls-2, .cls-3, .cls-4 {
        stroke-width: 0px;
      }

      .cls-2 {
        fill: #404041;
      }

      .cls-3 {
        fill: url(#Unnamed_Pattern);
      }

      .cls-4 {
        fill: #fff;
      }
    </style>
    <pattern id="Unnamed_Pattern" data-name="Unnamed Pattern" x="0" y="0" width="47.67" height="29.25" patternTransform="translate(1220.91 1765.35) scale(1.28)" patternUnits="userSpaceOnUse" viewBox="0 0 47.67 29.25">
      <g>
        <rect class="cls-1" y="0" width="47.67" height="29.25"/>
        <path class="cls-4" d="M23.83,0C10.67,0,0,10.67,0,23.83c0,1.86.21,3.68.62,5.41h46.43c.4-1.74.62-3.55.62-5.41C47.67,10.67,37,0,23.83,0Z"/>
      </g>
    </pattern>
  </defs>
  <g>
    <path class="cls-3" d="M41.45,11.59c-16.83,0-30.48,13.65-30.48,30.48,0,2.38.27,4.7.79,6.93h59.38c.52-2.22.79-4.54.79-6.93,0-16.83-13.65-30.48-30.48-30.48Z"/>
    <path class="cls-2" d="M76.95,41.92c0-1.01-.04-2.01-.13-2.99,2.49-1.12,4.55-2.21,6.09-3.23-.31-2.1-.78-4.16-1.4-6.15-1.83-.25-4.15-.34-6.89-.28-.72-1.88-1.59-3.68-2.6-5.4,1.75-2.09,3.13-3.96,4.08-5.55-1.19-1.74-2.51-3.39-3.94-4.93-1.76.57-3.89,1.49-6.32,2.74-1.45-1.37-3.01-2.62-4.68-3.74.67-2.65,1.1-4.93,1.27-6.77-1.81-1.05-3.71-1.97-5.68-2.74-1.34,1.27-2.86,3.03-4.51,5.21-1.88-.6-3.84-1.05-5.84-1.33-.54-2.68-1.15-4.92-1.8-6.65-1.04-.08-2.09-.12-3.15-.12s-2.11.04-3.15.12c-.65,1.73-1.26,3.97-1.8,6.65-2.01.28-3.96.73-5.84,1.33-1.65-2.18-3.17-3.94-4.51-5.21-1.97.77-3.86,1.69-5.68,2.74.16,1.84.59,4.13,1.26,6.77-1.66,1.11-3.23,2.36-4.68,3.74-2.43-1.25-4.56-2.17-6.32-2.74-1.43,1.54-2.75,3.19-3.94,4.93.94,1.59,2.32,3.46,4.08,5.55-1.01,1.71-1.89,3.52-2.6,5.4-2.73-.07-5.06.02-6.89.28-.61,1.99-1.08,4.04-1.4,6.15,1.54,1.02,3.6,2.11,6.09,3.24-.08.99-.13,1.99-.13,2.99s.04,2.01.13,2.99c-2.49,1.13-4.55,2.21-6.09,3.24.3,2,.74,3.96,1.31,5.86h80.29c.57-1.9,1.01-3.85,1.31-5.85-1.54-1.02-3.6-2.11-6.09-3.24.08-.99.13-1.98.13-2.99ZM11.76,49c-.52-2.22-.79-4.54-.79-6.93,0-16.83,13.65-30.48,30.48-30.48s30.48,13.65,30.48,30.48c0,2.38-.27,4.7-.79,6.93H11.76Z"/>
  </g>
  <g>
    <path class="cls-2" d="M65.18,38.43v-6.97c0-.92-.6-1.7-1.43-1.97v-.24c0-.09-.08-.17-.17-.17h-.96c-.09,0-.17.07-.17.17v.24c-.83.27-1.43,1.05-1.43,1.97v.51h-.87c-.08-.02-.15.02-.21.07-.06.05-.09.13-.09.21v1.55h-.52s-.02-6.05-.02-6.05c0-.23-.18-.41-.41-.41l-4.49-.03c-.11,0-.22.04-.3.12-.08.08-.12.19-.12.3l.02,1.71c-.93.21-1.62,1.03-1.62,2.02v2.83h-1.46c-.23.01-.41.2-.41.43l-.02,6.96h-1.01v-2.41h-3.06l-.76-20.5h-1.74l-.76,20.5h-1.74l-.9-21.75h-1.74l-.9,21.75h-3v2.41h-1.44l-1.46-3.43-4.07,3.42-1.46-3.42-4.07,3.42-1.46-3.42-4.12,3.47v9.52h49.29v-12.8h-.92ZM52.39,41.67h-1.06l.02-6.55h1.05s0,6.55,0,6.55ZM59.86,38.43h-.74v3.24h-2.57v-8.11h.92s0,2.92,0,2.92c0,.16.13.29.29.29h2.1s0,1.66,0,1.66ZM59.86,36.19h-1.81s0-2.91,0-2.91c0-.16-.13-.29-.29-.29h-1.21v-1.53c0-1.02-.73-1.86-1.7-2.04l-.02-1.28,3.66.02.02,6.04c0,.23.18.41.41.41h.94v1.58ZM61.03,38.43h-.58v-1.66h.58s0,1.66,0,1.66ZM61.03,36.19h-.58v-1.56h.58v1.56ZM61.03,33.8h-.58v-1.26h.58v1.26Z"/>
    <g>
      <g>
        <rect class="cls-2" x="18.96" y="43.48" width="2.09" height="1.14"/>
        <rect class="cls-2" x="21.71" y="43.48" width="2.1" height="1.14"/>
        <rect class="cls-2" x="24.47" y="43.48" width="2.1" height="1.14"/>
        <rect class="cls-2" x="27.23" y="43.48" width="2.1" height="1.14"/>
        <rect class="cls-2" x="29.98" y="43.48" width="2.1" height="1.14"/>
        <rect class="cls-2" x="18.96" y="45.17" width="2.09" height="1.14"/>
        <rect class="cls-2" x="21.71" y="45.17" width="2.1" height="1.14"/>
        <rect class="cls-2" x="24.47" y="45.17" width="2.1" height="1.14"/>
        <rect class="cls-2" x="27.23" y="45.17" width="2.1" height="1.14"/>
        <rect class="cls-2" x="29.98" y="45.17" width="2.1" height="1.14"/>
      </g>
      <g>
        <rect class="cls-2" x="51.72" y="43.88" width="1.48" height="1.46"/>
        <rect class="cls-2" x="53.78" y="43.88" width="1.48" height="1.46"/>
        <rect class="cls-2" x="55.83" y="43.88" width="1.48" height="1.46"/>
      </g>
    </g>
  </g>
</svg>